<?xml version="1.0" encoding="UTF-8"?>
<svg width="118px" height="109px" viewBox="0 0 228 69" version="1.1" xmlns="http://www.w3.org/2000/svg" xmlns:xlink="http://www.w3.org/1999/xlink">
    <title>logo namR 2021</title>
    <g id="Page-1" stroke="none" stroke-width="1" fill="none" fill-rule="evenodd">
        <g id="Desktop-HD-Copy" transform="translate(-315.000000, -632.000000)">
            <g id="logo-namR-2021" transform="translate(315.000000, 632.000000)">
                <polygon id="Fill-1" fill="#FFFFFE" points="0 69 228 69 228 0 0 0"></polygon>
                <path d="M106.849785,22.6695683 C108.173388,22.1138746 109.581775,21.8155978 111.120148,21.8155978 C113.170035,21.8155978 114.878486,22.2423277 116.244482,23.1389456 C116.715136,23.4374778 117.269553,23.9505241 117.910797,24.6336494 L117.910797,22.4994893 L125.597808,22.4994893 L125.597808,45.4754841 L117.910797,45.4754841 L117.910797,42.7023783 C117.525693,43.1712449 117.269553,43.4695217 117.099474,43.5982301 C115.604004,45.0937 113.640689,45.8202389 111.205187,45.8202389 C108.002287,45.8202389 105.354825,44.6669702 103.262291,42.3172744 C101.212405,40.0544058 100.186823,36.5481213 100.186823,33.3452212 C100.186823,28.7329122 102.707619,24.5051963 106.849785,22.6695683 Z M91,57 L137,57 L137,11 L91,11 L91,57 Z" id="Fill-3" fill="#1A1919"></path>
                <path d="M113.000515,39 C114.379195,39 115.542915,38.5438371 116.534718,37.5929623 C117.526264,36.6423347 118,35.5291094 118,34.2051003 C118,32.8833152 117.526264,31.3549471 116.534718,30.4038252 C115.542915,29.4529505 114.379195,29 113.000515,29 C111.621063,29 110.45657,29.4529505 109.46657,30.4038252 C108.473994,31.3549471 108,32.8833152 108,34.1633389 C108,36.8508945 110.199082,39 113.000515,39" id="Fill-4" fill="#1A1919"></path>
                <path d="M75.7070134,23 C72.9271757,23 70.575025,24.0472877 68.6950428,26.1416125 L68.6950428,23.4608967 L61,23.4608967 L61,46 L68.6950428,46 L68.6950428,33.30505 C68.6950428,30.4136744 70.0624653,28.9475719 72.7561521,28.9475719 C73.3972991,28.9475719 74.0384461,29.1143965 74.5949761,29.4092201 C75.7494498,30.0374424 76.3041903,31.0421472 76.3041903,32.5090012 L76.3041903,46 L84,46 L84,31.1681424 C84,28.5713399 83.3146271,26.6022587 81.9904079,25.3039827 C80.4082472,23.7537165 78.3135267,23 75.7070134,23" id="Fill-5" fill="#1A1919"></path>
                <path d="M173.781689,23 C171.027052,23 168.431756,24.0665752 166.566284,26.1611505 L165.907137,26.855251 C165.610749,26.2656037 165.245204,25.7430871 164.801635,25.3039827 C163.233057,23.7537165 161.157834,23 158.57419,23 C155.819807,23 153.489994,24.0472877 151.626042,26.1416125 L151.626042,23.4608967 L144,23.4608967 L144,46 L151.626042,46 L151.626042,33.30505 C151.626042,30.4136744 152.981827,28.9475719 155.651094,28.9475719 C156.286175,28.9475719 156.922016,29.1143965 157.471981,29.4092201 C158.616242,30.0374424 159.166207,31.0421472 159.166207,32.5090012 L159.166207,46 L166.833793,46 L166.833793,33.30505 C166.833793,30.4136744 168.190592,28.9475719 170.858846,28.9475719 C171.493927,28.9475719 172.129515,29.1143965 172.679226,29.4092201 C173.82374,30.0374424 174.373958,31.0421472 174.373958,32.5090012 L174.373958,46 L182,46 L182,31.1681424 C182,28.5713399 181.3216,26.6022587 180.009133,25.3039827 C178.442582,23.7537165 176.366852,23 173.781689,23" id="Fill-6" fill="#1A1919"></path>
                <path d="M201.500807,26.4886407 L197.727546,26.4886407 L197.727546,18.6126712 L201.544396,18.6126712 C204.588441,18.6126712 206.088156,19.9177772 206.088156,22.5718116 C206.088156,25.1822754 204.545108,26.4886407 201.500807,26.4886407 Z M207.548128,32.4820036 C211.723434,31.1897421 213.806215,27.8612434 213.806215,22.4866851 C213.806215,19.2012533 212.777773,16.5905377 210.677812,14.6525234 C208.746054,12.8842584 206.088156,12 202.658478,12 L190,12 L190,46 L197.727546,46 L197.727546,33.1013119 L198.955727,33.1013119 L207.611204,45.9947111 L217,45.9947111 L207.548128,32.4820036 L207.548128,32.4820036 Z" id="Fill-7" fill="#1A1919"></path>
            </g>
        </g>
    </g>
</svg>